<?xml version="1.0" encoding="UTF-8" standalone="no"?>
<!DOCTYPE svg PUBLIC "-//W3C//DTD SVG 1.1//EN" "http://www.w3.org/Graphics/SVG/1.1/DTD/svg11.dtd">
<!--Generated by Intaglio, www.PurgatoryDesign.com-->
<svg version="1.1" viewBox="150,203,270,330" width="270" height="330" xmlns="http://www.w3.org/2000/svg" xmlns:xlink="http://www.w3.org/1999/xlink"><g><g><path fill="#fff" stroke="#f00" stroke-width="12" d="M257,258.625 C257,285.618,235.118,307.5,208.125,307.5 C181.132,307.5,159.25,285.618,159.25,258.625 C159.25,231.632,181.132,209.75,208.125,209.75 C235.118,209.75,257,231.632,257,258.625 Z"/><path stroke="#000100" d="M219.242,258.625 C219.242,264.765,214.265,269.742,208.125,269.742 C201.985,269.742,197.008,264.765,197.008,258.625 C197.008,252.485,201.985,247.508,208.125,247.508 C214.265,247.508,219.242,252.485,219.242,258.625 Z"/></g><g><path fill="#fff" stroke="#f00" stroke-width="12" d="M414,258.625 C414,285.618,392.118,307.5,365.125,307.5 C338.132,307.5,316.25,285.618,316.25,258.625 C316.25,231.632,338.132,209.75,365.125,209.75 C392.118,209.75,414,231.632,414,258.625 Z"/><path stroke="#000100" d="M376.242,258.625 C376.242,264.765,371.265,269.742,365.125,269.742 C358.985,269.742,354.008,264.765,354.008,258.625 C354.008,252.485,358.985,247.508,365.125,247.508 C371.265,247.508,376.242,252.485,376.242,258.625 Z"/></g></g><path fill="#fffffe" stroke="#000100" d="M151,516 C151,516,249,364,350,426 C451,488,312,390,270,450 C228,510,228,497,202,532 Z"/></svg>
